<?xml version="1.0" encoding="utf-8"?>
<!-- Svg Vector Icons : http://www.onlinewebfonts.com/icon -->
<!DOCTYPE svg PUBLIC "-//W3C//DTD SVG 1.1//EN" "http://www.w3.org/Graphics/SVG/1.1/DTD/svg11.dtd">
<svg version="1.1" xmlns="http://www.w3.org/2000/svg" xmlns:xlink="http://www.w3.org/1999/xlink" x="0px" y="0px" viewBox="0 0 256 256" enable-background="new 0 0 256 256" xml:space="preserve">
<metadata> Svg Vector Icons : http://www.onlinewebfonts.com/icon </metadata>
<g><g><g><path fill="#fff" d="M115.1,10.3c-0.1,0.1-0.1,1.2,0,2.3c0.2,2,0.2,2-0.9,1.6c-0.6-0.2-2-0.3-3-0.3c-1,0-1.9-0.1-2.1-0.4c-0.6-0.9-2.2-0.5-2.7,0.7c-0.2,0.7-1.1,1.7-1.9,2.3c-0.8,0.6-1.5,1.4-1.5,1.8c0,0.9-1.9,1.8-3.2,1.4c-0.7-0.2-1.5-0.1-1.8,0c-0.3,0.2-2,0.4-3.7,0.4c-3.5,0-4.2,0.6-2,1.8c1.5,0.8,2,2.5,1,3.1c-1,0.6-0.4,1.2,1.6,1.7c3.1,0.8,4.4,1.9,4.3,3.4c-0.1,0.9,0.4,1.9,2,3.4c2,2.1,2.1,2.3,1.8,4.4c-0.3,2.5-1.6,4-3.6,4c-0.9,0-1.2,0.2-0.9,0.8c0.1,0.4,0.3,0.9,0.3,1c0,0.1,0.3,0.2,0.8,0.2c0.6,0,0.7,0.3,0.5,1.7c-0.2,1-0.1,1.8,0.2,2c0.9,0.5,0.5,1.7-0.5,1.7c-0.5,0-1.1,0.3-1.3,0.7c-0.2,0.4-0.6,0.7-0.9,0.7c-0.4,0-0.7,0.6-0.8,1.3c-0.1,0.8-0.3,1.4-0.6,1.4c-0.2,0-0.9,0.2-1.4,0.4c-0.5,0.2-1.3,0.1-2.1-0.4c-1.7-1.1-2.6-1-2.9,0.4c-0.2,0.7-0.6,1.2-0.9,1.2c-0.5,0-1.6,2.1-2.5,4.5c-0.4,1.1-1.8,1.2-2.1,0.1c-0.4-1.1-1.3-0.9-3,0.9c-1,1-1.6,2.1-1.6,2.9c0,0.7-0.3,1.5-0.8,1.8c-0.7,0.4-0.6,0.6,0.5,1.8c0.7,0.8,1.4,1.9,1.6,2.6c0.2,0.6,0.6,1.1,1,1.1c0.4,0,0.7,0.3,0.7,0.7c0,0.4,0.4,0.7,0.9,0.7c0.5,0,1,0.1,1.2,0.3c0.5,0.5-0.2,1.7-1.1,1.7c-0.5,0-1,0.3-1.1,0.7c-0.1,0.3-1.1,0.8-2.1,0.9c-1.8,0.3-5.7,3.4-5.7,4.6c0,0.3-0.5,0.8-1.2,1.1c-1.2,0.7-2.5,0.3-3.7-1.1c-0.8-1-1.8-1-4.5,0.4c-1.5,0.7-2.9,1-3.8,0.9c-1.2-0.2-1.6,0-1.8,0.8c-0.3,1.3-1.8,1.8-3,1c-0.8-0.5-1.3-0.4-3.2,0.5c-3,1.6-3.7,2.8-2.4,4.1c1.8,1.9,1.8,3.4,0,5.7c-1.7,2.1-3,2.8-6,3.2c-1.7,0.2-2.1,0-3.6-1.4c-1.9-2-2.8-2.2-3.4-0.7c-0.4,0.9-0.4,0.9-2.6,0c-1.2-0.5-2.3-1.4-2.4-1.9c-0.2-0.8-0.7-0.9-3.4-0.9c-4,0-5.5,1.1-6.7,5.1l-0.9,2.8l1.1,0.9l1.1,0.8l-1.3,0.6c-0.7,0.3-1.3,0.8-1.3,1c0,0.5,0.1,0.5,1.8-0.1c1.2-0.5,1.3-0.4,1.1,0.7c-0.2,0.9,0,1.2,0.6,1.2c0.5,0,1.2,0.5,1.5,1.1c0.7,1.4,2.3,2.6,5.3,4.2c2.9,1.6,2.9,1.4,1.8,2.8c-3.3,3.9-4,5.9-2.7,9c0.5,1.2,0.6,2.1,0.1,3.6c-0.2,1.1-0.3,2.1-0.1,2.3s0.8,1,1.2,2c0.6,1.3,1.8,2.2,4.9,4c2.7,1.5,4.1,2.6,4.1,3.1c0,0.5,0.3,1.2,0.7,1.6c0.4,0.4,0.7,1,0.7,1.4s0.4,1.3,1,2c0.6,0.8,0.9,1.6,0.7,2.3c-0.1,0.5-0.1,1,0.1,1c0.8,0,3.5,4,3.5,5.2c0,0.6-0.3,1.3-0.7,1.5c-1.3,0.7-1,1.9,0.8,3.6c1.4,1.3,2,2.3,2.2,3.8c0.1,1.2,0,2.3-0.2,2.7c-0.3,0.4-0.3,0.9-0.1,1.3c0.3,0.4,0.5,1.2,0.5,1.8c0,1.4,1.8,2.3,3.7,1.8c1-0.3,1.8-0.2,2.6,0.3c1,0.6,1.2,0.6,2.6-0.4c1.8-1.3,3.2-1,3.8,0.9c0.3,1,1.1,1.5,2.9,2.2c1.9,0.6,2.5,1.1,2.8,2.1c0.2,0.8,0.6,1.2,1.3,1.2c0.5,0,1,0.2,1.2,0.4c0.1,0.2,0.9,0.5,1.8,0.7c1.8,0.3,4.9,2.6,4.9,3.5c0,0.3,0.5,1,1.2,1.5c0.7,0.5,1.2,1.2,1.2,1.5c0,0.3,0.6,1.3,1.5,2.1c0.8,0.8,1.7,2.4,2,3.5c0.3,1.2,0.9,3.1,1.4,4.3c0.4,1.2,0.8,2.5,0.8,2.8c0,0.3,0.4,1,0.9,1.5c0.5,0.6,0.7,1.2,0.6,1.5c-0.1,0.3,0.1,1.2,0.5,2c0.7,1.2,0.8,1.7,0.3,2.9c-0.3,0.9-0.4,1.8-0.1,2.2c0.3,0.5,0.2,1.2-0.3,1.9c-0.6,1-0.6,1.3,0.1,3.1c0.5,1.1,1.6,2.6,2.5,3.4c1.1,1,1.5,1.9,1.5,3c0,0.8,0.3,2.2,0.7,3c0.4,0.8,0.7,2,0.7,2.6c0,0.6,0.5,1.9,1,2.9c1.9,3.1,0.5,9-2.2,9c-0.4,0-0.9,0.4-1,1c-0.1,0.5-0.6,1-1.1,1c-0.5,0-0.6,0.2-0.4,0.8c0.2,0.5,0.9,2.3,1.5,4c0.6,1.7,1.8,3.8,2.5,4.6l1.4,1.4l1.9-2c1-1.1,2.2-2,2.6-2c0.8,0,2.7,1.7,2.7,2.5c0,0.8,0.7,0.5,3.6-1.3c1.6-1,2.9-2.3,3-3c0.1-0.6,0.5-1.1,0.7-1.1c0.2,0,1.1-0.9,1.8-2c0.7-1.1,1.7-2.1,2.3-2.3c0.9-0.3,0.8-0.4-0.8-2c-2-2-2.1-2.4-1-3.6c0.7-0.8,0.7-1.1-0.5-3.2c-1.1-1.9-1.3-2.8-1.2-5.8c0-2.4,0.3-3.9,0.9-4.8c0.5-0.8,0.7-1.5,0.4-1.9c-0.3-0.5,0-1.2,1.1-2.3c0.9-0.9,1.7-2.1,1.8-2.7c0.2-0.9,0.6-1.1,2.7-1.2c2,0,2.6-0.3,3.5-1.4c1-1.3,1.3-1.4,3.6-1.1c2.5,0.3,2.6,0.2,4.2-1.5c0.9-1,1.7-2.1,1.7-2.4c0-1,2.9-2.7,4.8-2.7c1,0,3-0.5,4.5-1.2c1.5-0.7,2.9-1.2,3.1-1.2c0.2,0,1.7-1.3,3.3-3c1.6-1.6,3-3,3.3-3c0.2,0,1.1-0.6,1.8-1.4c1.4-1.5,3-2.2,3.5-1.5c0.1,0.2,1.1,0.5,2.1,0.7c3,0.5,3.6,0.8,3.6,1.7c0,0.4,0.5,1.7,1.2,2.8c0.6,1.1,1.6,2.9,2.1,3.9c0.5,1.1,1.3,2.3,1.8,2.7c0.6,0.5,0.7,1.2,0.5,2.7c-0.3,2.4,0.3,3.4,2.5,4c1.9,0.5,3.7,0.3,4.7-0.5c0.4-0.4,1.1-0.7,1.5-0.7c0.4,0,0.9-0.4,1-1c0.1-0.6,0.5-0.9,0.8-0.7c0.3,0.2,0.4,0.6,0.3,1c-0.3,0.8,1,0.9,1.4,0.2c0.2-0.3-0.3-1.8-1.1-3.3l-1.4-2.9l1.1-1.2c0.6-0.7,1.1-1.7,1.1-2.4c0-0.6,0.4-1.8,1-2.5c0.6-0.7,1-1.7,0.9-2.3c-0.1-1.8,0.1-2.2,0.7-2c0.4,0.1,0.8-0.1,1-0.7c0.1-0.5,0.9-1.4,1.7-2c0.8-0.5,1.7-1.7,2-2.5c0.4-1,1.1-1.5,2.2-1.7c1.3-0.2,1.7-0.1,2.7,1.2c1.4,1.8,3,2,3,0.3c0-0.6-0.3-1.6-0.7-2.1c-0.6-0.8-0.6-1.1,0-2.1c0.4-0.6,0.6-1.5,0.5-1.9c-0.3-0.8,0.7-0.9,1.5-0.1c0.6,0.6,1.6,0.2,1.6-0.8c0-0.9,1.2-0.9,2,0c0.3,0.4,1.2,0.8,1.9,0.9c1.1,0.1,1.5,0.5,2.1,2.6c0.9,2.6,1.5,3.1,2.6,2.3c0.3-0.3,1-0.4,1.5-0.2c0.4,0.1,0.8,0,0.8-0.2c0-0.3,0.3-0.5,0.7-0.5c0.3,0,1-0.5,1.5-1.2c0.8-1.3,0.6-2.3-1.1-4.9c-0.6-0.8-1-2-1-2.6c0-1.2-1.2-1.5-1.7-0.3c-0.4,1.2-1.1,0.8-2.2-1.4c-1.1-2.4-1.3-4-0.5-4.6c0.3-0.2,0.4-1,0.2-2.2c-0.3-2.2,0.3-2.9,1.6-1.7c1.2,1,3.5,0.5,3.5-0.8c0-0.5,0.5-1.2,1.3-1.5c1.1-0.5,1.4-0.5,1.9,0.3c0.4,0.5,1,0.8,1.5,0.7c0.8-0.1,2.6-2.6,2.6-3.7c0-0.3,0.5-1.1,1.1-1.7c1-1,1-1.1,0.2-1.3c-0.4-0.1-0.8-0.6-0.8-1.1c0-0.5-0.4-1.7-1-2.6c-1.3-2.1-1.2-3.2,0.1-3.9c1.4-0.7,4.3-3.9,4.3-4.7c0-0.3,0.7-1.1,1.5-1.7c0.8-0.6,1.5-1.5,1.5-2c0-1,0.5-1.1,1.4-0.3c0.4,0.4,0.6,0.3,0.6-0.4c0-0.5-0.3-1.3-0.7-1.6c-0.4-0.3-0.7-0.9-0.7-1.3c0-1.2,1.9-2.7,3.4-2.7c0.8,0,1.5-0.2,1.5-0.5c0-0.3,0.4-0.5,1-0.5c0.8,0,0.9-0.2,0.7-1c-0.1-0.5,0-1.4,0.2-1.9c0.4-0.8,0.3-1.2-0.7-2.4c-1.5-1.8-1.6-3-0.2-3.4c1-0.2,1.9-2.4,1.3-2.9c-0.5-0.5,0.7-2.1,1.6-2.1c1,0,3-1.6,3-2.5c0-0.2-0.5-0.8-1.2-1.3c-0.7-0.4-1.2-1.3-1.2-1.9c0-0.6-0.4-1.3-1-1.7c-0.5-0.3-0.8-0.9-0.7-1.3c0.4-1.2-0.2-1.9-1.3-1.3c-0.5,0.2-2.1,0.5-3.5,0.7c-3.1,0.2-4.8,1-4.8,2.2c0,0.5-0.4,1.2-0.9,1.7c-0.9,0.7-1,0.7-1.7-0.1c-0.4-0.5-1.1-1.8-1.4-2.9c-0.6-1.9-0.7-2.1-2-1.8c-1.6,0.3-3.2,0-4.6-1.1c-0.9-0.7-0.9-0.7,0-1.7c1-1.2,0.8-1.5-2-3c-1.7-0.9-1.9-0.9-2.5-0.1c-0.3,0.4-0.8,0.6-1.1,0.4c-0.3-0.2-1-0.1-1.7,0.2c-0.8,0.4-1.2,0.4-1.6-0.2c-0.3-0.4-0.9-0.8-1.2-0.8c-0.3,0-1.3-0.5-2.1-1.1c-1.4-1-1.6-1-2.1-0.2c-0.5,0.7-0.8,0.7-1.7,0.2c-0.6-0.3-1-0.9-1-1.2c0-0.7-5-0.3-5.5,0.5c-0.4,0.7-1.9-0.5-1.9-1.6c0-0.4,0.6-1.3,1.5-2c0.9-0.7,1.3-1.4,1-1.7c-0.3-0.4-0.4-2.5-0.1-4.2c0-0.2,0.5-0.4,1.1-0.6c0.9-0.2,1-0.5,0.8-1.9c-0.3-2,0.5-5.4,1.3-5.4c0.3,0,0.6-0.8,0.6-1.9c0.1-1.7-0.1-2-1.1-2.2c-0.7-0.2-2,0-3,0.4c-1.3,0.5-2,0.6-2.8,0.2c-0.5-0.3-1.1-0.4-1.2-0.3c-0.4,0.4-2.1-1.6-2.1-2.5c0-1.6-1.2-2.5-3.6-2.7c-1.9-0.2-2.6,0-3.3,0.7c-1.2,1.2-2.4,0.8-2.4-0.8c0-0.7-0.4-1.5-0.9-1.9c-1.4-1-4.1-6.7-3.6-7.7c0.7-1.3,0.7-3.1,0.1-4.6c-0.3-0.8-0.6-1.9-0.6-2.5c0-1.3-0.8-2.3-2.4-3.2c-1.1-0.6-1.3-0.5-1.9,0.2c-0.3,0.5-0.5,1.3-0.4,1.7c0.2,0.6-0.1,1.1-0.7,1.4c-0.9,0.4-1.2,0.4-2-0.3c-0.7-0.6-0.8-1.2-0.6-2.7c0.3-1.7,0.2-1.9-0.7-1.9c-0.6,0-1-0.2-0.8-0.4c0.3-0.6-0.7-5-1.3-5.7c-0.6-0.7-0.5-2.1,0.1-3.2c0.5-0.8,0.5-1.2,0-2c-0.3-0.5-0.6-1.3-0.6-1.7c0-0.5-0.5-0.7-1.8-0.6c-1.4,0.1-1.9-0.1-2.4-0.9c-1-2.1-1.8-2.7-2.5-2.1c-0.4,0.3-0.5,0.8-0.2,1.3c0.3,0.6,0.1,1-1.5,1.7c-1.9,0.8-2.9,0.8-2.9-0.1c0-0.2-0.7-1.1-1.5-2c-1.4-1.5-1.8-1.7-4.2-1.6c-2.1,0-2.9,0.3-3.4,1.1c-0.4,0.5-1.1,1-1.5,1c-0.9,0-3.3-2.3-3.8-3.6c-0.1-0.4-0.8-0.8-1.4-0.8c-1.1,0-3.8-2.1-3.8-3c0-0.2-0.5-0.3-1.3-0.1c-0.9,0.2-1.5,0.1-1.9-0.5c-0.5-0.7-0.8-0.7-1.3-0.3c-0.5,0.4-0.8,0.4-1.2,0c-0.9-0.9-0.7-2.4,0.3-2.4c0.5,0,1.2-0.3,1.5-0.7c0.5-0.6,0.4-0.8-0.2-1c-2.2-0.8,0.8-2.7,3.1-1.9c0.9,0.2,0.9,0.1,0.3-1.5c-0.3-1-1.1-2.5-1.8-3.2c-0.7-0.8-1.4-1.8-1.5-2.2c-0.2-0.4-0.5-0.7-0.8-0.7c-0.2,0-0.5-0.3-0.5-0.7s-0.4-0.9-0.9-1.2C118.2,10,115.6,9.8,115.1,10.3z"/></g></g></g>
</svg>